<?xml version="1.0" encoding="UTF-8" standalone="no"?>
<!DOCTYPE svg PUBLIC "-//W3C//DTD SVG 1.1//EN"
 "http://www.w3.org/Graphics/SVG/1.1/DTD/svg11.dtd">
<!-- Generated by graphviz version 2.44.1 (0)
 -->
<!-- Title: G Pages: 1 -->
<svg width="323pt" height="691pt"
 viewBox="0.00 0.00 323.00 691.00" xmlns="http://www.w3.org/2000/svg" xmlns:xlink="http://www.w3.org/1999/xlink">
<g id="graph0" class="graph" transform="scale(1 1) rotate(0) translate(4 687)">
<title>G</title>
<polygon fill="white" stroke="transparent" points="-4,4 -4,-687 319,-687 319,4 -4,4"/>
<!-- 139917954705200 -->
<g id="node1" class="node">
<title>139917954705200</title>
<polygon fill="#ddffdd" stroke="black" points="47,-0.5 47,-69.5 179,-69.5 179,-0.5 47,-0.5"/>
<text text-anchor="middle" x="80" y="-54.3" font-family="Courier,monospace" font-size="14.00">0</text>
<polyline fill="none" stroke="black" points="113,-46.5 113,-69.5 "/>
<text text-anchor="middle" x="146" y="-54.3" font-family="Courier,monospace" font-size="14.00">1</text>
<polyline fill="none" stroke="black" points="47,-46.5 179,-46.5 "/>
<text text-anchor="middle" x="113" y="-31.3" font-family="Courier,monospace" font-size="14.00">FibNode Fib(7)</text>
<polyline fill="none" stroke="black" points="47,-23.5 179,-23.5 "/>
<text text-anchor="middle" x="113" y="-8.3" font-family="Courier,monospace" font-size="14.00">13</text>
</g>
<!-- 139917954706784 -->
<g id="node2" class="node">
<title>139917954706784</title>
<polygon fill="#ddffdd" stroke="black" points="0,-106.5 0,-175.5 132,-175.5 132,-106.5 0,-106.5"/>
<text text-anchor="middle" x="33" y="-160.3" font-family="Courier,monospace" font-size="14.00">0</text>
<polyline fill="none" stroke="black" points="66,-152.5 66,-175.5 "/>
<text text-anchor="middle" x="99" y="-160.3" font-family="Courier,monospace" font-size="14.00">1</text>
<polyline fill="none" stroke="black" points="0,-152.5 132,-152.5 "/>
<text text-anchor="middle" x="66" y="-137.3" font-family="Courier,monospace" font-size="14.00">FibNode Fib(6)</text>
<polyline fill="none" stroke="black" points="0,-129.5 132,-129.5 "/>
<text text-anchor="middle" x="66" y="-114.3" font-family="Courier,monospace" font-size="14.00">8</text>
</g>
<!-- 139917954706784&#45;&gt;139917954705200 -->
<g id="edge1" class="edge">
<title>139917954706784:s&#45;&gt;139917954705200:n</title>
<path fill="none" stroke="black" d="M66,-106C66,-92.86 74.21,-88.8 78.05,-79.92"/>
<polygon fill="black" stroke="black" points="81.51,-80.49 80,-70 74.64,-79.14 81.51,-80.49"/>
</g>
<!-- 139917954232672 -->
<g id="node3" class="node">
<title>139917954232672</title>
<polygon fill="#ddffdd" stroke="black" points="94,-212.5 94,-281.5 226,-281.5 226,-212.5 94,-212.5"/>
<text text-anchor="middle" x="127" y="-266.3" font-family="Courier,monospace" font-size="14.00">0</text>
<polyline fill="none" stroke="black" points="160,-258.5 160,-281.5 "/>
<text text-anchor="middle" x="193" y="-266.3" font-family="Courier,monospace" font-size="14.00">1</text>
<polyline fill="none" stroke="black" points="94,-258.5 226,-258.5 "/>
<text text-anchor="middle" x="160" y="-243.3" font-family="Courier,monospace" font-size="14.00">FibNode Fib(5)</text>
<polyline fill="none" stroke="black" points="94,-235.5 226,-235.5 "/>
<text text-anchor="middle" x="160" y="-220.3" font-family="Courier,monospace" font-size="14.00">5</text>
</g>
<!-- 139917954232672&#45;&gt;139917954705200 -->
<g id="edge2" class="edge">
<title>139917954232672:s&#45;&gt;139917954705200:n</title>
<path fill="none" stroke="black" d="M160,-212C160,-152.17 147.54,-135.29 146.13,-80.33"/>
<polygon fill="black" stroke="black" points="149.63,-79.96 146,-70 142.63,-80.04 149.63,-79.96"/>
</g>
<!-- 139917954232672&#45;&gt;139917954706784 -->
<g id="edge3" class="edge">
<title>139917954232672:s&#45;&gt;139917954706784:n</title>
<path fill="none" stroke="black" d="M160,-212C160,-157.23 49.31,-224.48 34.61,-185.92"/>
<polygon fill="black" stroke="black" points="38.05,-185.31 33,-176 31.14,-186.43 38.05,-185.31"/>
</g>
<!-- 139917954233104 -->
<g id="node4" class="node">
<title>139917954233104</title>
<polygon fill="#ddffdd" stroke="black" points="16,-318.5 16,-387.5 148,-387.5 148,-318.5 16,-318.5"/>
<text text-anchor="middle" x="49" y="-372.3" font-family="Courier,monospace" font-size="14.00">0</text>
<polyline fill="none" stroke="black" points="82,-364.5 82,-387.5 "/>
<text text-anchor="middle" x="115" y="-372.3" font-family="Courier,monospace" font-size="14.00">1</text>
<polyline fill="none" stroke="black" points="16,-364.5 148,-364.5 "/>
<text text-anchor="middle" x="82" y="-349.3" font-family="Courier,monospace" font-size="14.00">FibNode Fib(4)</text>
<polyline fill="none" stroke="black" points="16,-341.5 148,-341.5 "/>
<text text-anchor="middle" x="82" y="-326.3" font-family="Courier,monospace" font-size="14.00">3</text>
</g>
<!-- 139917954233104&#45;&gt;139917954706784 -->
<g id="edge4" class="edge">
<title>139917954233104:s&#45;&gt;139917954706784:n</title>
<path fill="none" stroke="black" d="M82,-318C82,-270.87 75.66,-258.19 85,-212 87.61,-199.12 94.43,-194.92 97.48,-185.96"/>
<polygon fill="black" stroke="black" points="100.95,-186.41 99,-176 94.03,-185.36 100.95,-186.41"/>
</g>
<!-- 139917954233104&#45;&gt;139917954232672 -->
<g id="edge5" class="edge">
<title>139917954233104:s&#45;&gt;139917954232672:n</title>
<path fill="none" stroke="black" d="M82,-318C82,-296.59 113.45,-303.72 123.76,-291.67"/>
<polygon fill="black" stroke="black" points="127.15,-292.59 127,-282 120.51,-290.37 127.15,-292.59"/>
</g>
<!-- 139917954233536 -->
<g id="node5" class="node">
<title>139917954233536</title>
<polygon fill="#ddffdd" stroke="black" points="127,-424.5 127,-493.5 259,-493.5 259,-424.5 127,-424.5"/>
<text text-anchor="middle" x="160" y="-478.3" font-family="Courier,monospace" font-size="14.00">0</text>
<polyline fill="none" stroke="black" points="193,-470.5 193,-493.5 "/>
<text text-anchor="middle" x="226" y="-478.3" font-family="Courier,monospace" font-size="14.00">1</text>
<polyline fill="none" stroke="black" points="127,-470.5 259,-470.5 "/>
<text text-anchor="middle" x="193" y="-455.3" font-family="Courier,monospace" font-size="14.00">FibNode Fib(3)</text>
<polyline fill="none" stroke="black" points="127,-447.5 259,-447.5 "/>
<text text-anchor="middle" x="193" y="-432.3" font-family="Courier,monospace" font-size="14.00">2</text>
</g>
<!-- 139917954233536&#45;&gt;139917954232672 -->
<g id="edge6" class="edge">
<title>139917954233536:s&#45;&gt;139917954232672:n</title>
<path fill="none" stroke="black" d="M193,-424C193,-364.46 193,-347.05 193,-292.29"/>
<polygon fill="black" stroke="black" points="196.5,-292 193,-282 189.5,-292 196.5,-292"/>
</g>
<!-- 139917954233536&#45;&gt;139917954233104 -->
<g id="edge7" class="edge">
<title>139917954233536:s&#45;&gt;139917954233104:n</title>
<path fill="none" stroke="black" d="M193,-424C193,-361.9 65.38,-443.28 50.43,-397.99"/>
<polygon fill="black" stroke="black" points="53.88,-397.41 49,-388 46.95,-398.39 53.88,-397.41"/>
</g>
<!-- 139917954233968 -->
<g id="node6" class="node">
<title>139917954233968</title>
<polygon fill="#ddffdd" stroke="black" points="66,-530.5 66,-599.5 198,-599.5 198,-530.5 66,-530.5"/>
<text text-anchor="middle" x="99" y="-584.3" font-family="Courier,monospace" font-size="14.00">0</text>
<polyline fill="none" stroke="black" points="132,-576.5 132,-599.5 "/>
<text text-anchor="middle" x="165" y="-584.3" font-family="Courier,monospace" font-size="14.00">1</text>
<polyline fill="none" stroke="black" points="66,-576.5 198,-576.5 "/>
<text text-anchor="middle" x="132" y="-561.3" font-family="Courier,monospace" font-size="14.00">FibNode Fib(2)</text>
<polyline fill="none" stroke="black" points="66,-553.5 198,-553.5 "/>
<text text-anchor="middle" x="132" y="-538.3" font-family="Courier,monospace" font-size="14.00">1</text>
</g>
<!-- 139917954233968&#45;&gt;139917954233104 -->
<g id="edge8" class="edge">
<title>139917954233968:s&#45;&gt;139917954233104:n</title>
<path fill="none" stroke="black" d="M132,-530C132,-512.83 121.4,-510.83 118,-494 109.39,-451.41 114.1,-437.32 114.89,-398.45"/>
<polygon fill="black" stroke="black" points="118.4,-398.03 115,-388 111.4,-397.96 118.4,-398.03"/>
</g>
<!-- 139917954233968&#45;&gt;139917954233536 -->
<g id="edge9" class="edge">
<title>139917954233968:s&#45;&gt;139917954233536:n</title>
<path fill="none" stroke="black" d="M132,-530C132,-513.85 149.78,-513.45 157,-503.7"/>
<polygon fill="black" stroke="black" points="160.39,-504.59 160,-494 153.7,-502.52 160.39,-504.59"/>
</g>
<!-- 139917954234400 -->
<g id="node7" class="node">
<title>139917954234400</title>
<polygon fill="#ddffdd" stroke="black" points="33,-636.5 33,-682.5 165,-682.5 165,-636.5 33,-636.5"/>
<text text-anchor="middle" x="99" y="-667.3" font-family="Courier,monospace" font-size="14.00">FibNode Fib(1)</text>
<polyline fill="none" stroke="black" points="33,-659.5 165,-659.5 "/>
<text text-anchor="middle" x="99" y="-644.3" font-family="Courier,monospace" font-size="14.00">1</text>
</g>
<!-- 139917954234400&#45;&gt;139917954233536 -->
<g id="edge10" class="edge">
<title>139917954234400:s&#45;&gt;139917954233536:n</title>
<path fill="none" stroke="black" d="M99,-636C99,-585.4 173.9,-638.26 207,-600 235.99,-566.49 227.59,-545.2 226.18,-504.24"/>
<polygon fill="black" stroke="black" points="229.68,-503.94 226,-494 222.68,-504.06 229.68,-503.94"/>
</g>
<!-- 139917954234400&#45;&gt;139917954233968 -->
<g id="edge11" class="edge">
<title>139917954234400:s&#45;&gt;139917954233968:n</title>
<path fill="none" stroke="black" d="M99,-636C99,-624 99,-618.75 99,-610.12"/>
<polygon fill="black" stroke="black" points="102.5,-610 99,-600 95.5,-610 102.5,-610"/>
</g>
<!-- 139917954234736 -->
<g id="node8" class="node">
<title>139917954234736</title>
<polygon fill="#ddffdd" stroke="black" points="183,-636.5 183,-682.5 315,-682.5 315,-636.5 183,-636.5"/>
<text text-anchor="middle" x="249" y="-667.3" font-family="Courier,monospace" font-size="14.00">FibNode Fib(0)</text>
<polyline fill="none" stroke="black" points="183,-659.5 315,-659.5 "/>
<text text-anchor="middle" x="249" y="-644.3" font-family="Courier,monospace" font-size="14.00">0</text>
</g>
<!-- 139917954234736&#45;&gt;139917954233968 -->
<g id="edge12" class="edge">
<title>139917954234736:s&#45;&gt;139917954233968:n</title>
<path fill="none" stroke="black" d="M249,-636C249,-599.51 181.2,-632.31 167.42,-609.9"/>
<polygon fill="black" stroke="black" points="170.78,-608.88 165,-600 163.98,-610.55 170.78,-608.88"/>
</g>
</g>
</svg>
