<?xml version="1.0" encoding="UTF-8" standalone="no"?>
<!DOCTYPE svg PUBLIC "-//W3C//DTD SVG 1.1//EN"
 "http://www.w3.org/Graphics/SVG/1.1/DTD/svg11.dtd">
<!-- Generated by graphviz version 2.44.1 (0)
 -->
<!-- Title: G Pages: 1 -->
<svg width="2531pt" height="691pt"
 viewBox="0.00 0.00 2531.00 691.00" xmlns="http://www.w3.org/2000/svg" xmlns:xlink="http://www.w3.org/1999/xlink">
<g id="graph0" class="graph" transform="scale(1 1) rotate(0) translate(4 687)">
<title>G</title>
<polygon fill="white" stroke="transparent" points="-4,4 -4,-687 2527,-687 2527,4 -4,4"/>
<!-- 140522798880560 -->
<g id="node1" class="node">
<title>140522798880560</title>
<polygon fill="#ddffdd" stroke="black" points="1533,-0.5 1533,-69.5 1665,-69.5 1665,-0.5 1533,-0.5"/>
<text text-anchor="middle" x="1566" y="-54.3" font-family="Courier,monospace" font-size="14.00">0</text>
<polyline fill="none" stroke="black" points="1599,-46.5 1599,-69.5 "/>
<text text-anchor="middle" x="1632" y="-54.3" font-family="Courier,monospace" font-size="14.00">1</text>
<polyline fill="none" stroke="black" points="1533,-46.5 1665,-46.5 "/>
<text text-anchor="middle" x="1599" y="-31.3" font-family="Courier,monospace" font-size="14.00">FibNode Fib(7)</text>
<polyline fill="none" stroke="black" points="1533,-23.5 1665,-23.5 "/>
<text text-anchor="middle" x="1599" y="-8.3" font-family="Courier,monospace" font-size="14.00">13</text>
</g>
<!-- 140522798882144 -->
<g id="node2" class="node">
<title>140522798882144</title>
<polygon fill="#ddffdd" stroke="black" points="1200,-106.5 1200,-175.5 1332,-175.5 1332,-106.5 1200,-106.5"/>
<text text-anchor="middle" x="1233" y="-160.3" font-family="Courier,monospace" font-size="14.00">0</text>
<polyline fill="none" stroke="black" points="1266,-152.5 1266,-175.5 "/>
<text text-anchor="middle" x="1299" y="-160.3" font-family="Courier,monospace" font-size="14.00">1</text>
<polyline fill="none" stroke="black" points="1200,-152.5 1332,-152.5 "/>
<text text-anchor="middle" x="1266" y="-137.3" font-family="Courier,monospace" font-size="14.00">FibNode Fib(6)</text>
<polyline fill="none" stroke="black" points="1200,-129.5 1332,-129.5 "/>
<text text-anchor="middle" x="1266" y="-114.3" font-family="Courier,monospace" font-size="14.00">8</text>
</g>
<!-- 140522798882144&#45;&gt;140522798880560 -->
<g id="edge1" class="edge">
<title>140522798882144:s&#45;&gt;140522798880560:n</title>
<path fill="none" stroke="black" d="M1266,-106C1266,24.62 1549.82,-191.84 1565.34,-80.21"/>
<polygon fill="black" stroke="black" points="1568.85,-80.21 1566,-70 1561.86,-79.75 1568.85,-80.21"/>
</g>
<!-- 140522798882624 -->
<g id="node3" class="node">
<title>140522798882624</title>
<polygon fill="#ddffdd" stroke="black" points="750,-212.5 750,-281.5 882,-281.5 882,-212.5 750,-212.5"/>
<text text-anchor="middle" x="783" y="-266.3" font-family="Courier,monospace" font-size="14.00">0</text>
<polyline fill="none" stroke="black" points="816,-258.5 816,-281.5 "/>
<text text-anchor="middle" x="849" y="-266.3" font-family="Courier,monospace" font-size="14.00">1</text>
<polyline fill="none" stroke="black" points="750,-258.5 882,-258.5 "/>
<text text-anchor="middle" x="816" y="-243.3" font-family="Courier,monospace" font-size="14.00">FibNode Fib(5)</text>
<polyline fill="none" stroke="black" points="750,-235.5 882,-235.5 "/>
<text text-anchor="middle" x="816" y="-220.3" font-family="Courier,monospace" font-size="14.00">5</text>
</g>
<!-- 140522798882624&#45;&gt;140522798882144 -->
<g id="edge3" class="edge">
<title>140522798882624:s&#45;&gt;140522798882144:n</title>
<path fill="none" stroke="black" d="M816,-212C816,-122.8 1199.49,-257.11 1230.95,-186.25"/>
<polygon fill="black" stroke="black" points="1234.47,-186.49 1233,-176 1227.61,-185.12 1234.47,-186.49"/>
</g>
<!-- 140522798407984 -->
<g id="node4" class="node">
<title>140522798407984</title>
<polygon fill="#ddffdd" stroke="black" points="417,-318.5 417,-387.5 549,-387.5 549,-318.5 417,-318.5"/>
<text text-anchor="middle" x="450" y="-372.3" font-family="Courier,monospace" font-size="14.00">0</text>
<polyline fill="none" stroke="black" points="483,-364.5 483,-387.5 "/>
<text text-anchor="middle" x="516" y="-372.3" font-family="Courier,monospace" font-size="14.00">1</text>
<polyline fill="none" stroke="black" points="417,-364.5 549,-364.5 "/>
<text text-anchor="middle" x="483" y="-349.3" font-family="Courier,monospace" font-size="14.00">FibNode Fib(4)</text>
<polyline fill="none" stroke="black" points="417,-341.5 549,-341.5 "/>
<text text-anchor="middle" x="483" y="-326.3" font-family="Courier,monospace" font-size="14.00">3</text>
</g>
<!-- 140522798407984&#45;&gt;140522798882624 -->
<g id="edge5" class="edge">
<title>140522798407984:s&#45;&gt;140522798882624:n</title>
<path fill="none" stroke="black" d="M483,-318C483,-187.38 766.82,-403.84 782.34,-292.21"/>
<polygon fill="black" stroke="black" points="785.85,-292.21 783,-282 778.86,-291.75 785.85,-292.21"/>
</g>
<!-- 140522798408320 -->
<g id="node5" class="node">
<title>140522798408320</title>
<polygon fill="#ddffdd" stroke="black" points="192,-424.5 192,-493.5 324,-493.5 324,-424.5 192,-424.5"/>
<text text-anchor="middle" x="225" y="-478.3" font-family="Courier,monospace" font-size="14.00">0</text>
<polyline fill="none" stroke="black" points="258,-470.5 258,-493.5 "/>
<text text-anchor="middle" x="291" y="-478.3" font-family="Courier,monospace" font-size="14.00">1</text>
<polyline fill="none" stroke="black" points="192,-470.5 324,-470.5 "/>
<text text-anchor="middle" x="258" y="-455.3" font-family="Courier,monospace" font-size="14.00">FibNode Fib(3)</text>
<polyline fill="none" stroke="black" points="192,-447.5 324,-447.5 "/>
<text text-anchor="middle" x="258" y="-432.3" font-family="Courier,monospace" font-size="14.00">2</text>
</g>
<!-- 140522798408320&#45;&gt;140522798407984 -->
<g id="edge7" class="edge">
<title>140522798408320:s&#45;&gt;140522798407984:n</title>
<path fill="none" stroke="black" d="M258,-424C258,-340.91 433.85,-463.41 448.97,-397.98"/>
<polygon fill="black" stroke="black" points="452.45,-398.31 450,-388 445.49,-397.59 452.45,-398.31"/>
</g>
<!-- 140522798408656 -->
<g id="node6" class="node">
<title>140522798408656</title>
<polygon fill="#ddffdd" stroke="black" points="75,-530.5 75,-599.5 207,-599.5 207,-530.5 75,-530.5"/>
<text text-anchor="middle" x="108" y="-584.3" font-family="Courier,monospace" font-size="14.00">0</text>
<polyline fill="none" stroke="black" points="141,-576.5 141,-599.5 "/>
<text text-anchor="middle" x="174" y="-584.3" font-family="Courier,monospace" font-size="14.00">1</text>
<polyline fill="none" stroke="black" points="75,-576.5 207,-576.5 "/>
<text text-anchor="middle" x="141" y="-561.3" font-family="Courier,monospace" font-size="14.00">FibNode Fib(2)</text>
<polyline fill="none" stroke="black" points="75,-553.5 207,-553.5 "/>
<text text-anchor="middle" x="141" y="-538.3" font-family="Courier,monospace" font-size="14.00">1</text>
</g>
<!-- 140522798408656&#45;&gt;140522798408320 -->
<g id="edge9" class="edge">
<title>140522798408656:s&#45;&gt;140522798408320:n</title>
<path fill="none" stroke="black" d="M141,-530C141,-493.51 208.8,-526.31 222.58,-503.9"/>
<polygon fill="black" stroke="black" points="226.02,-504.55 225,-494 219.22,-502.88 226.02,-504.55"/>
</g>
<!-- 140522798408992 -->
<g id="node7" class="node">
<title>140522798408992</title>
<polygon fill="#ddffdd" stroke="black" points="0,-636.5 0,-682.5 132,-682.5 132,-636.5 0,-636.5"/>
<text text-anchor="middle" x="66" y="-667.3" font-family="Courier,monospace" font-size="14.00">FibNode Fib(1)</text>
<polyline fill="none" stroke="black" points="0,-659.5 132,-659.5 "/>
<text text-anchor="middle" x="66" y="-644.3" font-family="Courier,monospace" font-size="14.00">1</text>
</g>
<!-- 140522798408992&#45;&gt;140522798408656 -->
<g id="edge11" class="edge">
<title>140522798408992:s&#45;&gt;140522798408656:n</title>
<path fill="none" stroke="black" d="M66,-636C66,-615.64 94.8,-621.17 104.7,-609.71"/>
<polygon fill="black" stroke="black" points="108.1,-610.59 108,-600 101.47,-608.35 108.1,-610.59"/>
</g>
<!-- 140522798409328 -->
<g id="node8" class="node">
<title>140522798409328</title>
<polygon fill="#ddffdd" stroke="black" points="150,-636.5 150,-682.5 282,-682.5 282,-636.5 150,-636.5"/>
<text text-anchor="middle" x="216" y="-667.3" font-family="Courier,monospace" font-size="14.00">FibNode Fib(0)</text>
<polyline fill="none" stroke="black" points="150,-659.5 282,-659.5 "/>
<text text-anchor="middle" x="216" y="-644.3" font-family="Courier,monospace" font-size="14.00">0</text>
</g>
<!-- 140522798409328&#45;&gt;140522798408656 -->
<g id="edge12" class="edge">
<title>140522798409328:s&#45;&gt;140522798408656:n</title>
<path fill="none" stroke="black" d="M216,-636C216,-615.64 187.2,-621.17 177.3,-609.71"/>
<polygon fill="black" stroke="black" points="180.53,-608.35 174,-600 173.9,-610.59 180.53,-608.35"/>
</g>
<!-- 140522798409568 -->
<g id="node9" class="node">
<title>140522798409568</title>
<polygon fill="#ddffdd" stroke="black" points="225,-542 225,-588 357,-588 357,-542 225,-542"/>
<text text-anchor="middle" x="291" y="-572.8" font-family="Courier,monospace" font-size="14.00">FibNode Fib(1)</text>
<polyline fill="none" stroke="black" points="225,-565 357,-565 "/>
<text text-anchor="middle" x="291" y="-549.8" font-family="Courier,monospace" font-size="14.00">1</text>
</g>
<!-- 140522798409568&#45;&gt;140522798408320 -->
<g id="edge10" class="edge">
<title>140522798409568:s&#45;&gt;140522798408320:n</title>
<path fill="none" stroke="black" d="M291,-541C291,-524.03 291,-517.4 291,-504.3"/>
<polygon fill="black" stroke="black" points="294.5,-504 291,-494 287.5,-504 294.5,-504"/>
</g>
<!-- 140522798409808 -->
<g id="node10" class="node">
<title>140522798409808</title>
<polygon fill="#ddffdd" stroke="black" points="450,-424.5 450,-493.5 582,-493.5 582,-424.5 450,-424.5"/>
<text text-anchor="middle" x="483" y="-478.3" font-family="Courier,monospace" font-size="14.00">0</text>
<polyline fill="none" stroke="black" points="516,-470.5 516,-493.5 "/>
<text text-anchor="middle" x="549" y="-478.3" font-family="Courier,monospace" font-size="14.00">1</text>
<polyline fill="none" stroke="black" points="450,-470.5 582,-470.5 "/>
<text text-anchor="middle" x="516" y="-455.3" font-family="Courier,monospace" font-size="14.00">FibNode Fib(2)</text>
<polyline fill="none" stroke="black" points="450,-447.5 582,-447.5 "/>
<text text-anchor="middle" x="516" y="-432.3" font-family="Courier,monospace" font-size="14.00">1</text>
</g>
<!-- 140522798409808&#45;&gt;140522798407984 -->
<g id="edge8" class="edge">
<title>140522798409808:s&#45;&gt;140522798407984:n</title>
<path fill="none" stroke="black" d="M516,-424C516,-412 516,-406.75 516,-398.12"/>
<polygon fill="black" stroke="black" points="519.5,-398 516,-388 512.5,-398 519.5,-398"/>
</g>
<!-- 140522798410048 -->
<g id="node11" class="node">
<title>140522798410048</title>
<polygon fill="#ddffdd" stroke="black" points="375,-542 375,-588 507,-588 507,-542 375,-542"/>
<text text-anchor="middle" x="441" y="-572.8" font-family="Courier,monospace" font-size="14.00">FibNode Fib(1)</text>
<polyline fill="none" stroke="black" points="375,-565 507,-565 "/>
<text text-anchor="middle" x="441" y="-549.8" font-family="Courier,monospace" font-size="14.00">1</text>
</g>
<!-- 140522798410048&#45;&gt;140522798409808 -->
<g id="edge13" class="edge">
<title>140522798410048:s&#45;&gt;140522798409808:n</title>
<path fill="none" stroke="black" d="M441,-541C441,-516.93 472.02,-520.21 480.74,-503.83"/>
<polygon fill="black" stroke="black" points="484.17,-504.53 483,-494 477.35,-502.96 484.17,-504.53"/>
</g>
<!-- 140522798410288 -->
<g id="node12" class="node">
<title>140522798410288</title>
<polygon fill="#ddffdd" stroke="black" points="525,-542 525,-588 657,-588 657,-542 525,-542"/>
<text text-anchor="middle" x="591" y="-572.8" font-family="Courier,monospace" font-size="14.00">FibNode Fib(0)</text>
<polyline fill="none" stroke="black" points="525,-565 657,-565 "/>
<text text-anchor="middle" x="591" y="-549.8" font-family="Courier,monospace" font-size="14.00">0</text>
</g>
<!-- 140522798410288&#45;&gt;140522798409808 -->
<g id="edge14" class="edge">
<title>140522798410288:s&#45;&gt;140522798409808:n</title>
<path fill="none" stroke="black" d="M591,-541C591,-516.93 559.98,-520.21 551.26,-503.83"/>
<polygon fill="black" stroke="black" points="554.65,-502.96 549,-494 547.83,-504.53 554.65,-502.96"/>
</g>
<!-- 140522798410576 -->
<g id="node13" class="node">
<title>140522798410576</title>
<polygon fill="#ddffdd" stroke="black" points="783,-318.5 783,-387.5 915,-387.5 915,-318.5 783,-318.5"/>
<text text-anchor="middle" x="816" y="-372.3" font-family="Courier,monospace" font-size="14.00">0</text>
<polyline fill="none" stroke="black" points="849,-364.5 849,-387.5 "/>
<text text-anchor="middle" x="882" y="-372.3" font-family="Courier,monospace" font-size="14.00">1</text>
<polyline fill="none" stroke="black" points="783,-364.5 915,-364.5 "/>
<text text-anchor="middle" x="849" y="-349.3" font-family="Courier,monospace" font-size="14.00">FibNode Fib(3)</text>
<polyline fill="none" stroke="black" points="783,-341.5 915,-341.5 "/>
<text text-anchor="middle" x="849" y="-326.3" font-family="Courier,monospace" font-size="14.00">2</text>
</g>
<!-- 140522798410576&#45;&gt;140522798882624 -->
<g id="edge6" class="edge">
<title>140522798410576:s&#45;&gt;140522798882624:n</title>
<path fill="none" stroke="black" d="M849,-318C849,-306 849,-300.75 849,-292.12"/>
<polygon fill="black" stroke="black" points="852.5,-292 849,-282 845.5,-292 852.5,-292"/>
</g>
<!-- 140522798410816 -->
<g id="node14" class="node">
<title>140522798410816</title>
<polygon fill="#ddffdd" stroke="black" points="708,-424.5 708,-493.5 840,-493.5 840,-424.5 708,-424.5"/>
<text text-anchor="middle" x="741" y="-478.3" font-family="Courier,monospace" font-size="14.00">0</text>
<polyline fill="none" stroke="black" points="774,-470.5 774,-493.5 "/>
<text text-anchor="middle" x="807" y="-478.3" font-family="Courier,monospace" font-size="14.00">1</text>
<polyline fill="none" stroke="black" points="708,-470.5 840,-470.5 "/>
<text text-anchor="middle" x="774" y="-455.3" font-family="Courier,monospace" font-size="14.00">FibNode Fib(2)</text>
<polyline fill="none" stroke="black" points="708,-447.5 840,-447.5 "/>
<text text-anchor="middle" x="774" y="-432.3" font-family="Courier,monospace" font-size="14.00">1</text>
</g>
<!-- 140522798410816&#45;&gt;140522798410576 -->
<g id="edge15" class="edge">
<title>140522798410816:s&#45;&gt;140522798410576:n</title>
<path fill="none" stroke="black" d="M774,-424C774,-403.64 802.8,-409.17 812.7,-397.71"/>
<polygon fill="black" stroke="black" points="816.1,-398.59 816,-388 809.47,-396.35 816.1,-398.59"/>
</g>
<!-- 140522798411056 -->
<g id="node15" class="node">
<title>140522798411056</title>
<polygon fill="#ddffdd" stroke="black" points="675,-542 675,-588 807,-588 807,-542 675,-542"/>
<text text-anchor="middle" x="741" y="-572.8" font-family="Courier,monospace" font-size="14.00">FibNode Fib(1)</text>
<polyline fill="none" stroke="black" points="675,-565 807,-565 "/>
<text text-anchor="middle" x="741" y="-549.8" font-family="Courier,monospace" font-size="14.00">1</text>
</g>
<!-- 140522798411056&#45;&gt;140522798410816 -->
<g id="edge17" class="edge">
<title>140522798411056:s&#45;&gt;140522798410816:n</title>
<path fill="none" stroke="black" d="M741,-541C741,-524.03 741,-517.4 741,-504.3"/>
<polygon fill="black" stroke="black" points="744.5,-504 741,-494 737.5,-504 744.5,-504"/>
</g>
<!-- 140522798411296 -->
<g id="node16" class="node">
<title>140522798411296</title>
<polygon fill="#ddffdd" stroke="black" points="825,-542 825,-588 957,-588 957,-542 825,-542"/>
<text text-anchor="middle" x="891" y="-572.8" font-family="Courier,monospace" font-size="14.00">FibNode Fib(0)</text>
<polyline fill="none" stroke="black" points="825,-565 957,-565 "/>
<text text-anchor="middle" x="891" y="-549.8" font-family="Courier,monospace" font-size="14.00">0</text>
</g>
<!-- 140522798411296&#45;&gt;140522798410816 -->
<g id="edge18" class="edge">
<title>140522798411296:s&#45;&gt;140522798410816:n</title>
<path fill="none" stroke="black" d="M891,-541C891,-502.23 822.01,-530.26 809.08,-504.02"/>
<polygon fill="black" stroke="black" points="812.46,-503.08 807,-494 805.6,-504.5 812.46,-503.08"/>
</g>
<!-- 140522798411536 -->
<g id="node17" class="node">
<title>140522798411536</title>
<polygon fill="#ddffdd" stroke="black" points="858,-436 858,-482 990,-482 990,-436 858,-436"/>
<text text-anchor="middle" x="924" y="-466.8" font-family="Courier,monospace" font-size="14.00">FibNode Fib(1)</text>
<polyline fill="none" stroke="black" points="858,-459 990,-459 "/>
<text text-anchor="middle" x="924" y="-443.8" font-family="Courier,monospace" font-size="14.00">1</text>
</g>
<!-- 140522798411536&#45;&gt;140522798410576 -->
<g id="edge16" class="edge">
<title>140522798411536:s&#45;&gt;140522798410576:n</title>
<path fill="none" stroke="black" d="M924,-435C924,-410.93 892.98,-414.21 884.26,-397.83"/>
<polygon fill="black" stroke="black" points="887.65,-396.96 882,-388 880.83,-398.53 887.65,-396.96"/>
</g>
<!-- 140522798456896 -->
<g id="node18" class="node">
<title>140522798456896</title>
<polygon fill="#ddffdd" stroke="black" points="1233,-212.5 1233,-281.5 1365,-281.5 1365,-212.5 1233,-212.5"/>
<text text-anchor="middle" x="1266" y="-266.3" font-family="Courier,monospace" font-size="14.00">0</text>
<polyline fill="none" stroke="black" points="1299,-258.5 1299,-281.5 "/>
<text text-anchor="middle" x="1332" y="-266.3" font-family="Courier,monospace" font-size="14.00">1</text>
<polyline fill="none" stroke="black" points="1233,-258.5 1365,-258.5 "/>
<text text-anchor="middle" x="1299" y="-243.3" font-family="Courier,monospace" font-size="14.00">FibNode Fib(4)</text>
<polyline fill="none" stroke="black" points="1233,-235.5 1365,-235.5 "/>
<text text-anchor="middle" x="1299" y="-220.3" font-family="Courier,monospace" font-size="14.00">3</text>
</g>
<!-- 140522798456896&#45;&gt;140522798882144 -->
<g id="edge4" class="edge">
<title>140522798456896:s&#45;&gt;140522798882144:n</title>
<path fill="none" stroke="black" d="M1299,-212C1299,-200 1299,-194.75 1299,-186.12"/>
<polygon fill="black" stroke="black" points="1302.5,-186 1299,-176 1295.5,-186 1302.5,-186"/>
</g>
<!-- 140522798457136 -->
<g id="node19" class="node">
<title>140522798457136</title>
<polygon fill="#ddffdd" stroke="black" points="1125,-318.5 1125,-387.5 1257,-387.5 1257,-318.5 1125,-318.5"/>
<text text-anchor="middle" x="1158" y="-372.3" font-family="Courier,monospace" font-size="14.00">0</text>
<polyline fill="none" stroke="black" points="1191,-364.5 1191,-387.5 "/>
<text text-anchor="middle" x="1224" y="-372.3" font-family="Courier,monospace" font-size="14.00">1</text>
<polyline fill="none" stroke="black" points="1125,-364.5 1257,-364.5 "/>
<text text-anchor="middle" x="1191" y="-349.3" font-family="Courier,monospace" font-size="14.00">FibNode Fib(3)</text>
<polyline fill="none" stroke="black" points="1125,-341.5 1257,-341.5 "/>
<text text-anchor="middle" x="1191" y="-326.3" font-family="Courier,monospace" font-size="14.00">2</text>
</g>
<!-- 140522798457136&#45;&gt;140522798456896 -->
<g id="edge19" class="edge">
<title>140522798457136:s&#45;&gt;140522798456896:n</title>
<path fill="none" stroke="black" d="M1191,-318C1191,-285.21 1249.97,-311.34 1263.33,-291.9"/>
<polygon fill="black" stroke="black" points="1266.78,-292.57 1266,-282 1260.02,-290.74 1266.78,-292.57"/>
</g>
<!-- 140522798457376 -->
<g id="node20" class="node">
<title>140522798457376</title>
<polygon fill="#ddffdd" stroke="black" points="1008,-424.5 1008,-493.5 1140,-493.5 1140,-424.5 1008,-424.5"/>
<text text-anchor="middle" x="1041" y="-478.3" font-family="Courier,monospace" font-size="14.00">0</text>
<polyline fill="none" stroke="black" points="1074,-470.5 1074,-493.5 "/>
<text text-anchor="middle" x="1107" y="-478.3" font-family="Courier,monospace" font-size="14.00">1</text>
<polyline fill="none" stroke="black" points="1008,-470.5 1140,-470.5 "/>
<text text-anchor="middle" x="1074" y="-455.3" font-family="Courier,monospace" font-size="14.00">FibNode Fib(2)</text>
<polyline fill="none" stroke="black" points="1008,-447.5 1140,-447.5 "/>
<text text-anchor="middle" x="1074" y="-432.3" font-family="Courier,monospace" font-size="14.00">1</text>
</g>
<!-- 140522798457376&#45;&gt;140522798457136 -->
<g id="edge21" class="edge">
<title>140522798457376:s&#45;&gt;140522798457136:n</title>
<path fill="none" stroke="black" d="M1074,-424C1074,-387.51 1141.8,-420.31 1155.58,-397.9"/>
<polygon fill="black" stroke="black" points="1159.02,-398.55 1158,-388 1152.22,-396.88 1159.02,-398.55"/>
</g>
<!-- 140522798457616 -->
<g id="node21" class="node">
<title>140522798457616</title>
<polygon fill="#ddffdd" stroke="black" points="975,-542 975,-588 1107,-588 1107,-542 975,-542"/>
<text text-anchor="middle" x="1041" y="-572.8" font-family="Courier,monospace" font-size="14.00">FibNode Fib(1)</text>
<polyline fill="none" stroke="black" points="975,-565 1107,-565 "/>
<text text-anchor="middle" x="1041" y="-549.8" font-family="Courier,monospace" font-size="14.00">1</text>
</g>
<!-- 140522798457616&#45;&gt;140522798457376 -->
<g id="edge23" class="edge">
<title>140522798457616:s&#45;&gt;140522798457376:n</title>
<path fill="none" stroke="black" d="M1041,-541C1041,-524.03 1041,-517.4 1041,-504.3"/>
<polygon fill="black" stroke="black" points="1044.5,-504 1041,-494 1037.5,-504 1044.5,-504"/>
</g>
<!-- 140522798410528 -->
<g id="node22" class="node">
<title>140522798410528</title>
<polygon fill="#ddffdd" stroke="black" points="1125,-542 1125,-588 1257,-588 1257,-542 1125,-542"/>
<text text-anchor="middle" x="1191" y="-572.8" font-family="Courier,monospace" font-size="14.00">FibNode Fib(0)</text>
<polyline fill="none" stroke="black" points="1125,-565 1257,-565 "/>
<text text-anchor="middle" x="1191" y="-549.8" font-family="Courier,monospace" font-size="14.00">0</text>
</g>
<!-- 140522798410528&#45;&gt;140522798457376 -->
<g id="edge24" class="edge">
<title>140522798410528:s&#45;&gt;140522798457376:n</title>
<path fill="none" stroke="black" d="M1191,-541C1191,-502.23 1122.01,-530.26 1109.08,-504.02"/>
<polygon fill="black" stroke="black" points="1112.46,-503.08 1107,-494 1105.6,-504.5 1112.46,-503.08"/>
</g>
<!-- 140522798458048 -->
<g id="node23" class="node">
<title>140522798458048</title>
<polygon fill="#ddffdd" stroke="black" points="1158,-436 1158,-482 1290,-482 1290,-436 1158,-436"/>
<text text-anchor="middle" x="1224" y="-466.8" font-family="Courier,monospace" font-size="14.00">FibNode Fib(1)</text>
<polyline fill="none" stroke="black" points="1158,-459 1290,-459 "/>
<text text-anchor="middle" x="1224" y="-443.8" font-family="Courier,monospace" font-size="14.00">1</text>
</g>
<!-- 140522798458048&#45;&gt;140522798457136 -->
<g id="edge22" class="edge">
<title>140522798458048:s&#45;&gt;140522798457136:n</title>
<path fill="none" stroke="black" d="M1224,-435C1224,-418.03 1224,-411.4 1224,-398.3"/>
<polygon fill="black" stroke="black" points="1227.5,-398 1224,-388 1220.5,-398 1227.5,-398"/>
</g>
<!-- 140522798458336 -->
<g id="node24" class="node">
<title>140522798458336</title>
<polygon fill="#ddffdd" stroke="black" points="1341,-318.5 1341,-387.5 1473,-387.5 1473,-318.5 1341,-318.5"/>
<text text-anchor="middle" x="1374" y="-372.3" font-family="Courier,monospace" font-size="14.00">0</text>
<polyline fill="none" stroke="black" points="1407,-364.5 1407,-387.5 "/>
<text text-anchor="middle" x="1440" y="-372.3" font-family="Courier,monospace" font-size="14.00">1</text>
<polyline fill="none" stroke="black" points="1341,-364.5 1473,-364.5 "/>
<text text-anchor="middle" x="1407" y="-349.3" font-family="Courier,monospace" font-size="14.00">FibNode Fib(2)</text>
<polyline fill="none" stroke="black" points="1341,-341.5 1473,-341.5 "/>
<text text-anchor="middle" x="1407" y="-326.3" font-family="Courier,monospace" font-size="14.00">1</text>
</g>
<!-- 140522798458336&#45;&gt;140522798456896 -->
<g id="edge20" class="edge">
<title>140522798458336:s&#45;&gt;140522798456896:n</title>
<path fill="none" stroke="black" d="M1407,-318C1407,-285.21 1348.03,-311.34 1334.67,-291.9"/>
<polygon fill="black" stroke="black" points="1337.98,-290.74 1332,-282 1331.22,-292.57 1337.98,-290.74"/>
</g>
<!-- 140522798458576 -->
<g id="node25" class="node">
<title>140522798458576</title>
<polygon fill="#ddffdd" stroke="black" points="1308,-436 1308,-482 1440,-482 1440,-436 1308,-436"/>
<text text-anchor="middle" x="1374" y="-466.8" font-family="Courier,monospace" font-size="14.00">FibNode Fib(1)</text>
<polyline fill="none" stroke="black" points="1308,-459 1440,-459 "/>
<text text-anchor="middle" x="1374" y="-443.8" font-family="Courier,monospace" font-size="14.00">1</text>
</g>
<!-- 140522798458576&#45;&gt;140522798458336 -->
<g id="edge25" class="edge">
<title>140522798458576:s&#45;&gt;140522798458336:n</title>
<path fill="none" stroke="black" d="M1374,-435C1374,-418.03 1374,-411.4 1374,-398.3"/>
<polygon fill="black" stroke="black" points="1377.5,-398 1374,-388 1370.5,-398 1377.5,-398"/>
</g>
<!-- 140522798458816 -->
<g id="node26" class="node">
<title>140522798458816</title>
<polygon fill="#ddffdd" stroke="black" points="1458,-436 1458,-482 1590,-482 1590,-436 1458,-436"/>
<text text-anchor="middle" x="1524" y="-466.8" font-family="Courier,monospace" font-size="14.00">FibNode Fib(0)</text>
<polyline fill="none" stroke="black" points="1458,-459 1590,-459 "/>
<text text-anchor="middle" x="1524" y="-443.8" font-family="Courier,monospace" font-size="14.00">0</text>
</g>
<!-- 140522798458816&#45;&gt;140522798458336 -->
<g id="edge26" class="edge">
<title>140522798458816:s&#45;&gt;140522798458336:n</title>
<path fill="none" stroke="black" d="M1524,-435C1524,-396.23 1455.01,-424.26 1442.08,-398.02"/>
<polygon fill="black" stroke="black" points="1445.46,-397.08 1440,-388 1438.6,-398.5 1445.46,-397.08"/>
</g>
<!-- 140522798458288 -->
<g id="node27" class="node">
<title>140522798458288</title>
<polygon fill="#ddffdd" stroke="black" points="1866,-106.5 1866,-175.5 1998,-175.5 1998,-106.5 1866,-106.5"/>
<text text-anchor="middle" x="1899" y="-160.3" font-family="Courier,monospace" font-size="14.00">0</text>
<polyline fill="none" stroke="black" points="1932,-152.5 1932,-175.5 "/>
<text text-anchor="middle" x="1965" y="-160.3" font-family="Courier,monospace" font-size="14.00">1</text>
<polyline fill="none" stroke="black" points="1866,-152.5 1998,-152.5 "/>
<text text-anchor="middle" x="1932" y="-137.3" font-family="Courier,monospace" font-size="14.00">FibNode Fib(5)</text>
<polyline fill="none" stroke="black" points="1866,-129.5 1998,-129.5 "/>
<text text-anchor="middle" x="1932" y="-114.3" font-family="Courier,monospace" font-size="14.00">5</text>
</g>
<!-- 140522798458288&#45;&gt;140522798880560 -->
<g id="edge2" class="edge">
<title>140522798458288:s&#45;&gt;140522798880560:n</title>
<path fill="none" stroke="black" d="M1932,-106C1932,24.62 1648.18,-191.84 1632.66,-80.21"/>
<polygon fill="black" stroke="black" points="1636.14,-79.75 1632,-70 1629.15,-80.21 1636.14,-79.75"/>
</g>
<!-- 140522798459248 -->
<g id="node28" class="node">
<title>140522798459248</title>
<polygon fill="#ddffdd" stroke="black" points="1833,-212.5 1833,-281.5 1965,-281.5 1965,-212.5 1833,-212.5"/>
<text text-anchor="middle" x="1866" y="-266.3" font-family="Courier,monospace" font-size="14.00">0</text>
<polyline fill="none" stroke="black" points="1899,-258.5 1899,-281.5 "/>
<text text-anchor="middle" x="1932" y="-266.3" font-family="Courier,monospace" font-size="14.00">1</text>
<polyline fill="none" stroke="black" points="1833,-258.5 1965,-258.5 "/>
<text text-anchor="middle" x="1899" y="-243.3" font-family="Courier,monospace" font-size="14.00">FibNode Fib(4)</text>
<polyline fill="none" stroke="black" points="1833,-235.5 1965,-235.5 "/>
<text text-anchor="middle" x="1899" y="-220.3" font-family="Courier,monospace" font-size="14.00">3</text>
</g>
<!-- 140522798459248&#45;&gt;140522798458288 -->
<g id="edge27" class="edge">
<title>140522798459248:s&#45;&gt;140522798458288:n</title>
<path fill="none" stroke="black" d="M1899,-212C1899,-200 1899,-194.75 1899,-186.12"/>
<polygon fill="black" stroke="black" points="1902.5,-186 1899,-176 1895.5,-186 1902.5,-186"/>
</g>
<!-- 140522798459488 -->
<g id="node29" class="node">
<title>140522798459488</title>
<polygon fill="#ddffdd" stroke="black" points="1725,-318.5 1725,-387.5 1857,-387.5 1857,-318.5 1725,-318.5"/>
<text text-anchor="middle" x="1758" y="-372.3" font-family="Courier,monospace" font-size="14.00">0</text>
<polyline fill="none" stroke="black" points="1791,-364.5 1791,-387.5 "/>
<text text-anchor="middle" x="1824" y="-372.3" font-family="Courier,monospace" font-size="14.00">1</text>
<polyline fill="none" stroke="black" points="1725,-364.5 1857,-364.5 "/>
<text text-anchor="middle" x="1791" y="-349.3" font-family="Courier,monospace" font-size="14.00">FibNode Fib(3)</text>
<polyline fill="none" stroke="black" points="1725,-341.5 1857,-341.5 "/>
<text text-anchor="middle" x="1791" y="-326.3" font-family="Courier,monospace" font-size="14.00">2</text>
</g>
<!-- 140522798459488&#45;&gt;140522798459248 -->
<g id="edge29" class="edge">
<title>140522798459488:s&#45;&gt;140522798459248:n</title>
<path fill="none" stroke="black" d="M1791,-318C1791,-285.21 1849.97,-311.34 1863.33,-291.9"/>
<polygon fill="black" stroke="black" points="1866.78,-292.57 1866,-282 1860.02,-290.74 1866.78,-292.57"/>
</g>
<!-- 140522798459728 -->
<g id="node30" class="node">
<title>140522798459728</title>
<polygon fill="#ddffdd" stroke="black" points="1608,-424.5 1608,-493.5 1740,-493.5 1740,-424.5 1608,-424.5"/>
<text text-anchor="middle" x="1641" y="-478.3" font-family="Courier,monospace" font-size="14.00">0</text>
<polyline fill="none" stroke="black" points="1674,-470.5 1674,-493.5 "/>
<text text-anchor="middle" x="1707" y="-478.3" font-family="Courier,monospace" font-size="14.00">1</text>
<polyline fill="none" stroke="black" points="1608,-470.5 1740,-470.5 "/>
<text text-anchor="middle" x="1674" y="-455.3" font-family="Courier,monospace" font-size="14.00">FibNode Fib(2)</text>
<polyline fill="none" stroke="black" points="1608,-447.5 1740,-447.5 "/>
<text text-anchor="middle" x="1674" y="-432.3" font-family="Courier,monospace" font-size="14.00">1</text>
</g>
<!-- 140522798459728&#45;&gt;140522798459488 -->
<g id="edge31" class="edge">
<title>140522798459728:s&#45;&gt;140522798459488:n</title>
<path fill="none" stroke="black" d="M1674,-424C1674,-387.51 1741.8,-420.31 1755.58,-397.9"/>
<polygon fill="black" stroke="black" points="1759.02,-398.55 1758,-388 1752.22,-396.88 1759.02,-398.55"/>
</g>
<!-- 140522798459968 -->
<g id="node31" class="node">
<title>140522798459968</title>
<polygon fill="#ddffdd" stroke="black" points="1533,-542 1533,-588 1665,-588 1665,-542 1533,-542"/>
<text text-anchor="middle" x="1599" y="-572.8" font-family="Courier,monospace" font-size="14.00">FibNode Fib(1)</text>
<polyline fill="none" stroke="black" points="1533,-565 1665,-565 "/>
<text text-anchor="middle" x="1599" y="-549.8" font-family="Courier,monospace" font-size="14.00">1</text>
</g>
<!-- 140522798459968&#45;&gt;140522798459728 -->
<g id="edge33" class="edge">
<title>140522798459968:s&#45;&gt;140522798459728:n</title>
<path fill="none" stroke="black" d="M1599,-541C1599,-516.93 1630.02,-520.21 1638.74,-503.83"/>
<polygon fill="black" stroke="black" points="1642.17,-504.53 1641,-494 1635.35,-502.96 1642.17,-504.53"/>
</g>
<!-- 140522798460208 -->
<g id="node32" class="node">
<title>140522798460208</title>
<polygon fill="#ddffdd" stroke="black" points="1683,-542 1683,-588 1815,-588 1815,-542 1683,-542"/>
<text text-anchor="middle" x="1749" y="-572.8" font-family="Courier,monospace" font-size="14.00">FibNode Fib(0)</text>
<polyline fill="none" stroke="black" points="1683,-565 1815,-565 "/>
<text text-anchor="middle" x="1749" y="-549.8" font-family="Courier,monospace" font-size="14.00">0</text>
</g>
<!-- 140522798460208&#45;&gt;140522798459728 -->
<g id="edge34" class="edge">
<title>140522798460208:s&#45;&gt;140522798459728:n</title>
<path fill="none" stroke="black" d="M1749,-541C1749,-516.93 1717.98,-520.21 1709.26,-503.83"/>
<polygon fill="black" stroke="black" points="1712.65,-502.96 1707,-494 1705.83,-504.53 1712.65,-502.96"/>
</g>
<!-- 140522798460448 -->
<g id="node33" class="node">
<title>140522798460448</title>
<polygon fill="#ddffdd" stroke="black" points="1758,-436 1758,-482 1890,-482 1890,-436 1758,-436"/>
<text text-anchor="middle" x="1824" y="-466.8" font-family="Courier,monospace" font-size="14.00">FibNode Fib(1)</text>
<polyline fill="none" stroke="black" points="1758,-459 1890,-459 "/>
<text text-anchor="middle" x="1824" y="-443.8" font-family="Courier,monospace" font-size="14.00">1</text>
</g>
<!-- 140522798460448&#45;&gt;140522798459488 -->
<g id="edge32" class="edge">
<title>140522798460448:s&#45;&gt;140522798459488:n</title>
<path fill="none" stroke="black" d="M1824,-435C1824,-418.03 1824,-411.4 1824,-398.3"/>
<polygon fill="black" stroke="black" points="1827.5,-398 1824,-388 1820.5,-398 1827.5,-398"/>
</g>
<!-- 140522798460736 -->
<g id="node34" class="node">
<title>140522798460736</title>
<polygon fill="#ddffdd" stroke="black" points="1941,-318.5 1941,-387.5 2073,-387.5 2073,-318.5 1941,-318.5"/>
<text text-anchor="middle" x="1974" y="-372.3" font-family="Courier,monospace" font-size="14.00">0</text>
<polyline fill="none" stroke="black" points="2007,-364.5 2007,-387.5 "/>
<text text-anchor="middle" x="2040" y="-372.3" font-family="Courier,monospace" font-size="14.00">1</text>
<polyline fill="none" stroke="black" points="1941,-364.5 2073,-364.5 "/>
<text text-anchor="middle" x="2007" y="-349.3" font-family="Courier,monospace" font-size="14.00">FibNode Fib(2)</text>
<polyline fill="none" stroke="black" points="1941,-341.5 2073,-341.5 "/>
<text text-anchor="middle" x="2007" y="-326.3" font-family="Courier,monospace" font-size="14.00">1</text>
</g>
<!-- 140522798460736&#45;&gt;140522798459248 -->
<g id="edge30" class="edge">
<title>140522798460736:s&#45;&gt;140522798459248:n</title>
<path fill="none" stroke="black" d="M2007,-318C2007,-285.21 1948.03,-311.34 1934.67,-291.9"/>
<polygon fill="black" stroke="black" points="1937.98,-290.74 1932,-282 1931.22,-292.57 1937.98,-290.74"/>
</g>
<!-- 140522798489712 -->
<g id="node35" class="node">
<title>140522798489712</title>
<polygon fill="#ddffdd" stroke="black" points="1908,-436 1908,-482 2040,-482 2040,-436 1908,-436"/>
<text text-anchor="middle" x="1974" y="-466.8" font-family="Courier,monospace" font-size="14.00">FibNode Fib(1)</text>
<polyline fill="none" stroke="black" points="1908,-459 2040,-459 "/>
<text text-anchor="middle" x="1974" y="-443.8" font-family="Courier,monospace" font-size="14.00">1</text>
</g>
<!-- 140522798489712&#45;&gt;140522798460736 -->
<g id="edge35" class="edge">
<title>140522798489712:s&#45;&gt;140522798460736:n</title>
<path fill="none" stroke="black" d="M1974,-435C1974,-418.03 1974,-411.4 1974,-398.3"/>
<polygon fill="black" stroke="black" points="1977.5,-398 1974,-388 1970.5,-398 1977.5,-398"/>
</g>
<!-- 140522798489952 -->
<g id="node36" class="node">
<title>140522798489952</title>
<polygon fill="#ddffdd" stroke="black" points="2058,-436 2058,-482 2190,-482 2190,-436 2058,-436"/>
<text text-anchor="middle" x="2124" y="-466.8" font-family="Courier,monospace" font-size="14.00">FibNode Fib(0)</text>
<polyline fill="none" stroke="black" points="2058,-459 2190,-459 "/>
<text text-anchor="middle" x="2124" y="-443.8" font-family="Courier,monospace" font-size="14.00">0</text>
</g>
<!-- 140522798489952&#45;&gt;140522798460736 -->
<g id="edge36" class="edge">
<title>140522798489952:s&#45;&gt;140522798460736:n</title>
<path fill="none" stroke="black" d="M2124,-435C2124,-396.23 2055.01,-424.26 2042.08,-398.02"/>
<polygon fill="black" stroke="black" points="2045.46,-397.08 2040,-388 2038.6,-398.5 2045.46,-397.08"/>
</g>
<!-- 140522798490192 -->
<g id="node37" class="node">
<title>140522798490192</title>
<polygon fill="#ddffdd" stroke="black" points="2274,-212.5 2274,-281.5 2406,-281.5 2406,-212.5 2274,-212.5"/>
<text text-anchor="middle" x="2307" y="-266.3" font-family="Courier,monospace" font-size="14.00">0</text>
<polyline fill="none" stroke="black" points="2340,-258.5 2340,-281.5 "/>
<text text-anchor="middle" x="2373" y="-266.3" font-family="Courier,monospace" font-size="14.00">1</text>
<polyline fill="none" stroke="black" points="2274,-258.5 2406,-258.5 "/>
<text text-anchor="middle" x="2340" y="-243.3" font-family="Courier,monospace" font-size="14.00">FibNode Fib(3)</text>
<polyline fill="none" stroke="black" points="2274,-235.5 2406,-235.5 "/>
<text text-anchor="middle" x="2340" y="-220.3" font-family="Courier,monospace" font-size="14.00">2</text>
</g>
<!-- 140522798490192&#45;&gt;140522798458288 -->
<g id="edge28" class="edge">
<title>140522798490192:s&#45;&gt;140522798458288:n</title>
<path fill="none" stroke="black" d="M2340,-212C2340,-48.16 1980.94,-330.81 1965.51,-186.16"/>
<polygon fill="black" stroke="black" points="1969,-185.81 1965,-176 1962.01,-186.16 1969,-185.81"/>
</g>
<!-- 140522798490432 -->
<g id="node38" class="node">
<title>140522798490432</title>
<polygon fill="#ddffdd" stroke="black" points="2241,-318.5 2241,-387.5 2373,-387.5 2373,-318.5 2241,-318.5"/>
<text text-anchor="middle" x="2274" y="-372.3" font-family="Courier,monospace" font-size="14.00">0</text>
<polyline fill="none" stroke="black" points="2307,-364.5 2307,-387.5 "/>
<text text-anchor="middle" x="2340" y="-372.3" font-family="Courier,monospace" font-size="14.00">1</text>
<polyline fill="none" stroke="black" points="2241,-364.5 2373,-364.5 "/>
<text text-anchor="middle" x="2307" y="-349.3" font-family="Courier,monospace" font-size="14.00">FibNode Fib(2)</text>
<polyline fill="none" stroke="black" points="2241,-341.5 2373,-341.5 "/>
<text text-anchor="middle" x="2307" y="-326.3" font-family="Courier,monospace" font-size="14.00">1</text>
</g>
<!-- 140522798490432&#45;&gt;140522798490192 -->
<g id="edge37" class="edge">
<title>140522798490432:s&#45;&gt;140522798490192:n</title>
<path fill="none" stroke="black" d="M2307,-318C2307,-306 2307,-300.75 2307,-292.12"/>
<polygon fill="black" stroke="black" points="2310.5,-292 2307,-282 2303.5,-292 2310.5,-292"/>
</g>
<!-- 140522798490672 -->
<g id="node39" class="node">
<title>140522798490672</title>
<polygon fill="#ddffdd" stroke="black" points="2208,-436 2208,-482 2340,-482 2340,-436 2208,-436"/>
<text text-anchor="middle" x="2274" y="-466.8" font-family="Courier,monospace" font-size="14.00">FibNode Fib(1)</text>
<polyline fill="none" stroke="black" points="2208,-459 2340,-459 "/>
<text text-anchor="middle" x="2274" y="-443.8" font-family="Courier,monospace" font-size="14.00">1</text>
</g>
<!-- 140522798490672&#45;&gt;140522798490432 -->
<g id="edge39" class="edge">
<title>140522798490672:s&#45;&gt;140522798490432:n</title>
<path fill="none" stroke="black" d="M2274,-435C2274,-418.03 2274,-411.4 2274,-398.3"/>
<polygon fill="black" stroke="black" points="2277.5,-398 2274,-388 2270.5,-398 2277.5,-398"/>
</g>
<!-- 140522798490912 -->
<g id="node40" class="node">
<title>140522798490912</title>
<polygon fill="#ddffdd" stroke="black" points="2358,-436 2358,-482 2490,-482 2490,-436 2358,-436"/>
<text text-anchor="middle" x="2424" y="-466.8" font-family="Courier,monospace" font-size="14.00">FibNode Fib(0)</text>
<polyline fill="none" stroke="black" points="2358,-459 2490,-459 "/>
<text text-anchor="middle" x="2424" y="-443.8" font-family="Courier,monospace" font-size="14.00">0</text>
</g>
<!-- 140522798490912&#45;&gt;140522798490432 -->
<g id="edge40" class="edge">
<title>140522798490912:s&#45;&gt;140522798490432:n</title>
<path fill="none" stroke="black" d="M2424,-435C2424,-396.23 2355.01,-424.26 2342.08,-398.02"/>
<polygon fill="black" stroke="black" points="2345.46,-397.08 2340,-388 2338.6,-398.5 2345.46,-397.08"/>
</g>
<!-- 140522798491152 -->
<g id="node41" class="node">
<title>140522798491152</title>
<polygon fill="#ddffdd" stroke="black" points="2391,-330 2391,-376 2523,-376 2523,-330 2391,-330"/>
<text text-anchor="middle" x="2457" y="-360.8" font-family="Courier,monospace" font-size="14.00">FibNode Fib(1)</text>
<polyline fill="none" stroke="black" points="2391,-353 2523,-353 "/>
<text text-anchor="middle" x="2457" y="-337.8" font-family="Courier,monospace" font-size="14.00">1</text>
</g>
<!-- 140522798491152&#45;&gt;140522798490192 -->
<g id="edge38" class="edge">
<title>140522798491152:s&#45;&gt;140522798490192:n</title>
<path fill="none" stroke="black" d="M2457,-329C2457,-290.23 2388.01,-318.26 2375.08,-292.02"/>
<polygon fill="black" stroke="black" points="2378.46,-291.08 2373,-282 2371.6,-292.5 2378.46,-291.08"/>
</g>
</g>
</svg>
